Coordinates
version=1
nRows=13
nColumns=26
inDegrees=yes

Units are S.I. units (second, meters, Newtons, ...)
Angles are in degrees.

endheader
time	pelvis_tilt	pelvis_list	pelvis_rotation	pelvis_tx	pelvis_ty	pelvis_tz	hip_flexion_r	hip_adduction_r	hip_rotation_r	knee_angle_r	knee_angle_r_beta	ankle_angle_r	subtalar_angle_r	mtp_angle_r	hip_flexion_l	hip_adduction_l	hip_rotation_l	knee_angle_l	knee_angle_l_beta	ankle_angle_l	subtalar_angle_l	mtp_angle_l	lumbar_extension	lumbar_bending	lumbar_rotation
      0.80833333	      8.56707255	     -2.03792722	      5.04238395	      0.84120610	      1.01383589	      0.18839652	     -3.40565875	      4.57529785	     -7.92354120	      9.01534392	      9.01534392	      2.22555095	      0.00000000	      0.00000000	     11.46536226	    -11.76290179	     -8.25039354	     64.59032968	     64.59032968	      4.15065597	      0.00000000	      0.00000000	    -19.85838299	      5.19190334	      4.64847612
      0.81666667	      8.69010340	     -1.88876265	      4.88759157	      0.84934263	      1.01486519	      0.18895789	     -4.39461488	      4.54660387	     -7.60626002	      8.41687782	      8.41687782	      2.31872358	      0.00000000	      0.00000000	     12.02890283	    -11.60093112	     -8.70074835	     63.64628404	     63.64628404	      4.46906687	      0.00000000	      0.00000000	    -20.02526488	      4.97500079	      4.68681348
      0.82500000	      8.62805125	     -1.83723445	      4.61640981	      0.85711832	      1.01542955	      0.18975024	     -5.08129237	      4.58439159	     -7.41984792	      7.91679669	      7.91679669	      2.37548934	      0.00000000	      0.00000000	     12.81366888	    -11.53268426	     -9.16768628	     62.64078059	     62.64078059	      4.76797884	      0.00000000	      0.00000000	    -20.03049491	      4.80739075	      4.86319919
      0.83333333	      8.64878862	     -1.62615514	      4.29691920	      0.86497888	      1.01625264	      0.19047865	     -5.91321666	      4.44815513	     -7.02237581	      7.37047477	      7.37047477	      2.43686845	      0.00000000	      0.00000000	     13.35792980	    -11.26878751	     -9.69883104	     61.28167340	     61.28167340	      4.82915608	      0.00000000	      0.00000000	    -20.14875035	      4.46279487	      5.01386298
      0.84166667	      8.63885889	     -1.51209246	      4.09805448	      0.87271609	      1.01664906	      0.19079497	     -6.65356961	      4.38766801	     -6.77571986	      6.92314624	      6.92314624	      2.65135792	      0.00000000	      0.00000000	     14.01736883	    -11.07020128	    -10.11807376	     59.92433316	     59.92433316	      4.99964546	      0.00000000	      0.00000000	    -20.22741261	      4.29579971	      5.06911330
      0.85000000	      8.61444172	     -1.38642138	      3.91399531	      0.88036916	      1.01694857	      0.19106420	     -7.35464440	      4.30202404	     -6.53578514	      6.51207020	      6.51207020	      2.78163764	      0.00000000	      0.00000000	     14.65013929	    -10.82131599	    -10.46226834	     58.42485336	     58.42485336	      5.07257725	      0.00000000	      0.00000000	    -20.30471951	      4.11762375	      5.10637891
      0.85833333	      8.61280127	     -1.25677093	      3.69097342	      0.88808464	      1.01719124	      0.19144091	     -8.08284492	      4.21193831	     -6.24111412	      6.09313824	      6.09313824	      2.88851562	      0.00000000	      0.00000000	     15.17205533	    -10.55407871	    -10.82462442	     56.71364450	     56.71364450	      5.04895002	      0.00000000	      0.00000000	    -20.41537501	      3.91302659	      5.17719484
      0.86666667	      8.54256827	     -1.19535175	      3.52082093	      0.89574397	      1.01713759	      0.19167255	     -8.69763950	      4.18293162	     -5.98702091	      5.74426566	      5.74426566	      3.05881009	      0.00000000	      0.00000000	     15.75870176	    -10.35219680	    -11.11104610	     54.91335454	     54.91335454	      4.97624699	      0.00000000	      0.00000000	    -20.45022284	      3.80161654	      5.20120358
      0.87500000	      8.47942813	     -1.17739813	      3.35780275	      0.90325801	      1.01693180	      0.19193712	     -9.29447570	      4.20852986	     -5.69248178	      5.41793610	      5.41793610	      3.28013417	      0.00000000	      0.00000000	     16.32298291	    -10.16970267	    -11.36317068	     52.98704853	     52.98704853	      4.89990330	      0.00000000	      0.00000000	    -20.52118830	      3.72689421	      5.22974711
      0.88333333	      8.36445568	     -1.21187596	      3.22426372	      0.91078674	      1.01650528	      0.19215043	     -9.80704110	      4.29599111	     -5.35581108	      5.15643672	      5.15643672	      3.46629459	      0.00000000	      0.00000000	     16.90901366	    -10.01170703	    -11.52841985	     50.94304067	     50.94304067	      4.69494431	      0.00000000	      0.00000000	    -20.53240121	      3.71970618	      5.26703445
      0.89166667	      8.25527404	     -1.30809683	      3.06531480	      0.91830504	      1.01598087	      0.19233118	    -10.30613842	      4.43503901	     -4.98403226	      4.91836749	      4.91836749	      3.58821315	      0.00000000	      0.00000000	     17.42647608	     -9.92436197	    -11.67875663	     48.77990141	     48.77990141	      4.44539455	      0.00000000	      0.00000000	    -20.56063096	      3.77856566	      5.34063982
      0.90000000	      8.14288695	     -1.35991440	      2.97083127	      0.92595880	      1.01537797	      0.19226602	    -10.80318895	      4.50674107	     -4.81381206	      4.69195272	      4.69195272	      3.94887056	      0.00000000	      0.00000000	     17.85948436	     -9.72894194	    -11.79217906	     46.40173797	     46.40173797	      4.03285442	      0.00000000	      0.00000000	    -20.57678930	      3.81785036	      5.35974462
      0.90833333	      8.10898027	     -1.44628484	      2.73809236	      0.93338446	      1.01481159	      0.19235174	    -11.28680407	      4.56003680	     -4.63130338	      4.58629064	      4.58629064	      4.49700619	      0.00000000	      0.00000000	     18.10137384	     -9.60371673	    -12.04906265	     43.84247808	     43.84247808	      3.59746923	      0.00000000	      0.00000000	    -20.71733568	      3.82835543	      5.59120060
